<svg width="200" height="60" viewBox="0 0 200 60" xmlns="http://www.w3.org/2000/svg">
  <!-- Background -->
  <rect width="200" height="60" fill="#FFFFFF"/>
  
  <!-- Dog head outline -->
  <path d="M15 20 Q15 15 20 15 Q25 15 30 20 Q30 25 25 30 Q20 35 15 30 Q15 25 15 20" 
        fill="#FF7F32" stroke="#1A2A42" stroke-width="2"/>
  
  <!-- Dog ear -->
  <path d="M18 18 Q15 15 18 12 Q21 15 18 18" 
        fill="#FF7F32" stroke="#1A2A42" stroke-width="1"/>
  
  <!-- Dog eye -->
  <circle cx="22" cy="22" r="2" fill="#1A2A42"/>
  
  <!-- Dog nose -->
  <path d="M28 24 L30 26 L28 28 Z" fill="#1A2A42"/>
  
  <!-- Light bulb inside dog head -->
  <circle cx="22" cy="26" r="6" fill="#FFE4B5" stroke="#1A2A42" stroke-width="1"/>
  <path d="M22 20 L22 18 M20 20 L24 20" stroke="#1A2A42" stroke-width="1"/>
  <path d="M22 18 Q20 16 22 14 Q24 16 22 18" fill="none" stroke="#1A2A42" stroke-width="1"/>
  
  <!-- Light rays -->
  <path d="M22 14 L20 12 M22 14 L24 12 M22 14 L22 10" stroke="#FF7F32" stroke-width="1"/>
  
  <!-- Brand name -->
  <text x="45" y="18" font-family="Montserrat, sans-serif" font-weight="700" font-size="12" fill="#1A2A42">Smart</text>
  <text x="45" y="32" font-family="Montserrat, sans-serif" font-weight="700" font-size="16" fill="#1A2A42">PetBuys</text>
</svg>
